<mxfile host="app.diagrams.net" modified="2022-05-23T16:39:09.500Z" agent="5.0 (Windows NT 10.0; Win64; x64) AppleWebKit/537.36 (KHTML, like Gecko) Chrome/101.0.4951.64 Safari/537.36 Edg/101.0.1210.53" etag="NowvwrI9G5x2lCtNrNud" version="17.4.5" type="github">
  <diagram id="p14HiZIevVpTFjOCtkyl" name="Page-1">
    <mxGraphModel dx="1182" dy="764" grid="1" gridSize="10" guides="1" tooltips="1" connect="1" arrows="1" fold="1" page="1" pageScale="1" pageWidth="1250" pageHeight="900" math="0" shadow="0">
      <root>
        <mxCell id="0" />
        <mxCell id="1" style="locked=1;" parent="0" />
        <mxCell id="F2WLsx3-h_1X0e1XVa5v-314" value="" style="whiteSpace=wrap;html=1;strokeWidth=1;shadow=1;rounded=0;perimeterSpacing=0;sketch=0;" vertex="1" parent="1">
          <mxGeometry x="50" y="50" width="1150" height="1700" as="geometry" />
        </mxCell>
        <mxCell id="F2WLsx3-h_1X0e1XVa5v-85" value="Map Layer" style="locked=1;" parent="0" />
        <mxCell id="F2WLsx3-h_1X0e1XVa5v-238" value="" style="whiteSpace=wrap;html=1;aspect=fixed;strokeWidth=3;" vertex="1" parent="F2WLsx3-h_1X0e1XVa5v-85">
          <mxGeometry x="350" y="350" width="50" height="50" as="geometry" />
        </mxCell>
        <mxCell id="F2WLsx3-h_1X0e1XVa5v-239" value="" style="whiteSpace=wrap;html=1;aspect=fixed;strokeWidth=3;" vertex="1" parent="F2WLsx3-h_1X0e1XVa5v-85">
          <mxGeometry x="250" y="450" width="50" height="50" as="geometry" />
        </mxCell>
        <mxCell id="F2WLsx3-h_1X0e1XVa5v-240" value="" style="whiteSpace=wrap;html=1;aspect=fixed;strokeWidth=3;" vertex="1" parent="F2WLsx3-h_1X0e1XVa5v-85">
          <mxGeometry x="450" y="450" width="50" height="50" as="geometry" />
        </mxCell>
        <mxCell id="F2WLsx3-h_1X0e1XVa5v-241" value="" style="whiteSpace=wrap;html=1;aspect=fixed;strokeWidth=3;" vertex="1" parent="F2WLsx3-h_1X0e1XVa5v-85">
          <mxGeometry x="250" y="550" width="50" height="50" as="geometry" />
        </mxCell>
        <mxCell id="F2WLsx3-h_1X0e1XVa5v-242" value="" style="whiteSpace=wrap;html=1;aspect=fixed;strokeWidth=3;" vertex="1" parent="F2WLsx3-h_1X0e1XVa5v-85">
          <mxGeometry x="250" y="650" width="50" height="50" as="geometry" />
        </mxCell>
        <mxCell id="F2WLsx3-h_1X0e1XVa5v-243" value="" style="whiteSpace=wrap;html=1;aspect=fixed;strokeWidth=3;" vertex="1" parent="F2WLsx3-h_1X0e1XVa5v-85">
          <mxGeometry x="250" y="750" width="50" height="50" as="geometry" />
        </mxCell>
        <mxCell id="F2WLsx3-h_1X0e1XVa5v-244" value="" style="whiteSpace=wrap;html=1;aspect=fixed;strokeWidth=3;" vertex="1" parent="F2WLsx3-h_1X0e1XVa5v-85">
          <mxGeometry x="450" y="550" width="50" height="50" as="geometry" />
        </mxCell>
        <mxCell id="F2WLsx3-h_1X0e1XVa5v-245" value="" style="whiteSpace=wrap;html=1;aspect=fixed;strokeWidth=3;" vertex="1" parent="F2WLsx3-h_1X0e1XVa5v-85">
          <mxGeometry x="450" y="650" width="50" height="50" as="geometry" />
        </mxCell>
        <mxCell id="F2WLsx3-h_1X0e1XVa5v-246" value="" style="whiteSpace=wrap;html=1;aspect=fixed;strokeWidth=3;" vertex="1" parent="F2WLsx3-h_1X0e1XVa5v-85">
          <mxGeometry x="450" y="750" width="50" height="50" as="geometry" />
        </mxCell>
        <mxCell id="F2WLsx3-h_1X0e1XVa5v-247" value="" style="whiteSpace=wrap;html=1;aspect=fixed;strokeWidth=3;" vertex="1" parent="F2WLsx3-h_1X0e1XVa5v-85">
          <mxGeometry x="350" y="850" width="50" height="50" as="geometry" />
        </mxCell>
        <mxCell id="F2WLsx3-h_1X0e1XVa5v-248" value="" style="whiteSpace=wrap;html=1;aspect=fixed;strokeWidth=3;" vertex="1" parent="F2WLsx3-h_1X0e1XVa5v-85">
          <mxGeometry x="550" y="350" width="50" height="50" as="geometry" />
        </mxCell>
        <mxCell id="F2WLsx3-h_1X0e1XVa5v-249" value="" style="whiteSpace=wrap;html=1;aspect=fixed;strokeWidth=3;" vertex="1" parent="F2WLsx3-h_1X0e1XVa5v-85">
          <mxGeometry x="650" y="450" width="50" height="50" as="geometry" />
        </mxCell>
        <mxCell id="F2WLsx3-h_1X0e1XVa5v-250" value="" style="whiteSpace=wrap;html=1;aspect=fixed;strokeWidth=3;" vertex="1" parent="F2WLsx3-h_1X0e1XVa5v-85">
          <mxGeometry x="650" y="550" width="50" height="50" as="geometry" />
        </mxCell>
        <mxCell id="F2WLsx3-h_1X0e1XVa5v-251" value="" style="whiteSpace=wrap;html=1;aspect=fixed;strokeWidth=3;" vertex="1" parent="F2WLsx3-h_1X0e1XVa5v-85">
          <mxGeometry x="650" y="650" width="50" height="50" as="geometry" />
        </mxCell>
        <mxCell id="F2WLsx3-h_1X0e1XVa5v-252" value="" style="whiteSpace=wrap;html=1;aspect=fixed;strokeWidth=3;" vertex="1" parent="F2WLsx3-h_1X0e1XVa5v-85">
          <mxGeometry x="650" y="750" width="50" height="50" as="geometry" />
        </mxCell>
        <mxCell id="F2WLsx3-h_1X0e1XVa5v-253" value="" style="whiteSpace=wrap;html=1;aspect=fixed;strokeWidth=3;" vertex="1" parent="F2WLsx3-h_1X0e1XVa5v-85">
          <mxGeometry x="550" y="850" width="50" height="50" as="geometry" />
        </mxCell>
        <mxCell id="F2WLsx3-h_1X0e1XVa5v-254" value="" style="whiteSpace=wrap;html=1;aspect=fixed;strokeWidth=3;" vertex="1" parent="F2WLsx3-h_1X0e1XVa5v-85">
          <mxGeometry x="750" y="450" width="50" height="50" as="geometry" />
        </mxCell>
        <mxCell id="F2WLsx3-h_1X0e1XVa5v-255" value="" style="whiteSpace=wrap;html=1;aspect=fixed;strokeWidth=3;" vertex="1" parent="F2WLsx3-h_1X0e1XVa5v-85">
          <mxGeometry x="750" y="550" width="50" height="50" as="geometry" />
        </mxCell>
        <mxCell id="F2WLsx3-h_1X0e1XVa5v-256" value="" style="whiteSpace=wrap;html=1;aspect=fixed;strokeWidth=3;" vertex="1" parent="F2WLsx3-h_1X0e1XVa5v-85">
          <mxGeometry x="750" y="650" width="50" height="50" as="geometry" />
        </mxCell>
        <mxCell id="F2WLsx3-h_1X0e1XVa5v-257" value="" style="whiteSpace=wrap;html=1;aspect=fixed;strokeWidth=3;" vertex="1" parent="F2WLsx3-h_1X0e1XVa5v-85">
          <mxGeometry x="750" y="750" width="50" height="50" as="geometry" />
        </mxCell>
        <mxCell id="F2WLsx3-h_1X0e1XVa5v-258" value="" style="endArrow=none;html=1;rounded=0;entryX=0.5;entryY=1;entryDx=0;entryDy=0;exitX=0.5;exitY=0;exitDx=0;exitDy=0;strokeWidth=2;" edge="1" parent="F2WLsx3-h_1X0e1XVa5v-85" source="F2WLsx3-h_1X0e1XVa5v-241" target="F2WLsx3-h_1X0e1XVa5v-239">
          <mxGeometry width="50" height="50" relative="1" as="geometry">
            <mxPoint x="350" y="650" as="sourcePoint" />
            <mxPoint x="400" y="600" as="targetPoint" />
          </mxGeometry>
        </mxCell>
        <mxCell id="F2WLsx3-h_1X0e1XVa5v-259" value="" style="endArrow=none;html=1;rounded=0;entryX=0;entryY=1;entryDx=0;entryDy=0;exitX=1;exitY=0;exitDx=0;exitDy=0;strokeWidth=2;" edge="1" parent="F2WLsx3-h_1X0e1XVa5v-85" source="F2WLsx3-h_1X0e1XVa5v-239" target="F2WLsx3-h_1X0e1XVa5v-238">
          <mxGeometry width="50" height="50" relative="1" as="geometry">
            <mxPoint x="325" y="600" as="sourcePoint" />
            <mxPoint x="325" y="550" as="targetPoint" />
          </mxGeometry>
        </mxCell>
        <mxCell id="F2WLsx3-h_1X0e1XVa5v-260" value="" style="endArrow=none;html=1;rounded=0;entryX=1;entryY=1;entryDx=0;entryDy=0;exitX=0;exitY=0;exitDx=0;exitDy=0;strokeWidth=2;" edge="1" parent="F2WLsx3-h_1X0e1XVa5v-85" source="F2WLsx3-h_1X0e1XVa5v-240" target="F2WLsx3-h_1X0e1XVa5v-238">
          <mxGeometry width="50" height="50" relative="1" as="geometry">
            <mxPoint x="375" y="650" as="sourcePoint" />
            <mxPoint x="375" y="600" as="targetPoint" />
          </mxGeometry>
        </mxCell>
        <mxCell id="F2WLsx3-h_1X0e1XVa5v-261" value="" style="endArrow=none;html=1;rounded=0;entryX=0.5;entryY=1;entryDx=0;entryDy=0;exitX=0.5;exitY=0;exitDx=0;exitDy=0;strokeWidth=2;" edge="1" parent="F2WLsx3-h_1X0e1XVa5v-85">
          <mxGeometry width="50" height="50" relative="1" as="geometry">
            <mxPoint x="274.5" y="650" as="sourcePoint" />
            <mxPoint x="274.5" y="600" as="targetPoint" />
          </mxGeometry>
        </mxCell>
        <mxCell id="F2WLsx3-h_1X0e1XVa5v-262" value="" style="endArrow=none;html=1;rounded=0;entryX=0.5;entryY=1;entryDx=0;entryDy=0;exitX=0.5;exitY=0;exitDx=0;exitDy=0;strokeWidth=2;" edge="1" parent="F2WLsx3-h_1X0e1XVa5v-85">
          <mxGeometry width="50" height="50" relative="1" as="geometry">
            <mxPoint x="274.5" y="750" as="sourcePoint" />
            <mxPoint x="274.5" y="700" as="targetPoint" />
          </mxGeometry>
        </mxCell>
        <mxCell id="F2WLsx3-h_1X0e1XVa5v-263" value="" style="endArrow=none;html=1;rounded=0;entryX=0.5;entryY=1;entryDx=0;entryDy=0;exitX=0.5;exitY=0;exitDx=0;exitDy=0;strokeWidth=2;" edge="1" parent="F2WLsx3-h_1X0e1XVa5v-85">
          <mxGeometry width="50" height="50" relative="1" as="geometry">
            <mxPoint x="474.5" y="550" as="sourcePoint" />
            <mxPoint x="474.5" y="500" as="targetPoint" />
          </mxGeometry>
        </mxCell>
        <mxCell id="F2WLsx3-h_1X0e1XVa5v-264" value="" style="endArrow=none;html=1;rounded=0;entryX=0.5;entryY=1;entryDx=0;entryDy=0;exitX=0.5;exitY=0;exitDx=0;exitDy=0;strokeWidth=2;" edge="1" parent="F2WLsx3-h_1X0e1XVa5v-85">
          <mxGeometry width="50" height="50" relative="1" as="geometry">
            <mxPoint x="475" y="750" as="sourcePoint" />
            <mxPoint x="475" y="700" as="targetPoint" />
          </mxGeometry>
        </mxCell>
        <mxCell id="F2WLsx3-h_1X0e1XVa5v-265" value="" style="endArrow=none;html=1;rounded=0;entryX=0.5;entryY=1;entryDx=0;entryDy=0;exitX=0.5;exitY=0;exitDx=0;exitDy=0;strokeWidth=2;" edge="1" parent="F2WLsx3-h_1X0e1XVa5v-85">
          <mxGeometry width="50" height="50" relative="1" as="geometry">
            <mxPoint x="474.5" y="650" as="sourcePoint" />
            <mxPoint x="474.5" y="600" as="targetPoint" />
          </mxGeometry>
        </mxCell>
        <mxCell id="F2WLsx3-h_1X0e1XVa5v-266" value="" style="endArrow=none;html=1;rounded=0;entryX=0.5;entryY=1;entryDx=0;entryDy=0;exitX=0.5;exitY=0;exitDx=0;exitDy=0;strokeWidth=2;" edge="1" parent="F2WLsx3-h_1X0e1XVa5v-85">
          <mxGeometry width="50" height="50" relative="1" as="geometry">
            <mxPoint x="674.5" y="750" as="sourcePoint" />
            <mxPoint x="674.5" y="700" as="targetPoint" />
          </mxGeometry>
        </mxCell>
        <mxCell id="F2WLsx3-h_1X0e1XVa5v-267" value="" style="endArrow=none;html=1;rounded=0;entryX=0.5;entryY=1;entryDx=0;entryDy=0;exitX=0.5;exitY=0;exitDx=0;exitDy=0;strokeWidth=2;" edge="1" parent="F2WLsx3-h_1X0e1XVa5v-85">
          <mxGeometry width="50" height="50" relative="1" as="geometry">
            <mxPoint x="774.5" y="750" as="sourcePoint" />
            <mxPoint x="774.5" y="700" as="targetPoint" />
          </mxGeometry>
        </mxCell>
        <mxCell id="F2WLsx3-h_1X0e1XVa5v-268" value="" style="endArrow=none;html=1;rounded=0;entryX=0.5;entryY=1;entryDx=0;entryDy=0;exitX=0.5;exitY=0;exitDx=0;exitDy=0;strokeWidth=2;" edge="1" parent="F2WLsx3-h_1X0e1XVa5v-85">
          <mxGeometry width="50" height="50" relative="1" as="geometry">
            <mxPoint x="674.5" y="650" as="sourcePoint" />
            <mxPoint x="674.5" y="600" as="targetPoint" />
          </mxGeometry>
        </mxCell>
        <mxCell id="F2WLsx3-h_1X0e1XVa5v-269" value="" style="endArrow=none;html=1;rounded=0;entryX=0.5;entryY=1;entryDx=0;entryDy=0;exitX=0.5;exitY=0;exitDx=0;exitDy=0;strokeWidth=2;" edge="1" parent="F2WLsx3-h_1X0e1XVa5v-85">
          <mxGeometry width="50" height="50" relative="1" as="geometry">
            <mxPoint x="774.5" y="650" as="sourcePoint" />
            <mxPoint x="774.5" y="600" as="targetPoint" />
          </mxGeometry>
        </mxCell>
        <mxCell id="F2WLsx3-h_1X0e1XVa5v-270" value="" style="endArrow=none;html=1;rounded=0;entryX=0.5;entryY=1;entryDx=0;entryDy=0;exitX=0.5;exitY=0;exitDx=0;exitDy=0;strokeWidth=2;" edge="1" parent="F2WLsx3-h_1X0e1XVa5v-85">
          <mxGeometry width="50" height="50" relative="1" as="geometry">
            <mxPoint x="774.5" y="550" as="sourcePoint" />
            <mxPoint x="774.5" y="500" as="targetPoint" />
          </mxGeometry>
        </mxCell>
        <mxCell id="F2WLsx3-h_1X0e1XVa5v-271" value="" style="endArrow=none;html=1;rounded=0;entryX=0.5;entryY=1;entryDx=0;entryDy=0;exitX=0.5;exitY=0;exitDx=0;exitDy=0;strokeWidth=2;" edge="1" parent="F2WLsx3-h_1X0e1XVa5v-85">
          <mxGeometry width="50" height="50" relative="1" as="geometry">
            <mxPoint x="674.5" y="550" as="sourcePoint" />
            <mxPoint x="674.5" y="500" as="targetPoint" />
          </mxGeometry>
        </mxCell>
        <mxCell id="F2WLsx3-h_1X0e1XVa5v-272" value="" style="endArrow=none;html=1;rounded=0;entryX=1;entryY=1;entryDx=0;entryDy=0;exitX=0;exitY=0;exitDx=0;exitDy=0;strokeWidth=2;" edge="1" parent="F2WLsx3-h_1X0e1XVa5v-85">
          <mxGeometry width="50" height="50" relative="1" as="geometry">
            <mxPoint x="650" y="450" as="sourcePoint" />
            <mxPoint x="600" y="400" as="targetPoint" />
          </mxGeometry>
        </mxCell>
        <mxCell id="F2WLsx3-h_1X0e1XVa5v-273" value="" style="endArrow=none;html=1;rounded=0;entryX=0;entryY=1;entryDx=0;entryDy=0;exitX=1;exitY=0;exitDx=0;exitDy=0;strokeWidth=2;" edge="1" parent="F2WLsx3-h_1X0e1XVa5v-85">
          <mxGeometry width="50" height="50" relative="1" as="geometry">
            <mxPoint x="500" y="450" as="sourcePoint" />
            <mxPoint x="550" y="400" as="targetPoint" />
          </mxGeometry>
        </mxCell>
        <mxCell id="F2WLsx3-h_1X0e1XVa5v-274" value="" style="endArrow=none;html=1;rounded=0;entryX=0;entryY=1;entryDx=0;entryDy=0;exitX=1;exitY=0;exitDx=0;exitDy=0;strokeWidth=2;" edge="1" parent="F2WLsx3-h_1X0e1XVa5v-85">
          <mxGeometry width="50" height="50" relative="1" as="geometry">
            <mxPoint x="400" y="850" as="sourcePoint" />
            <mxPoint x="450" y="800" as="targetPoint" />
          </mxGeometry>
        </mxCell>
        <mxCell id="F2WLsx3-h_1X0e1XVa5v-275" value="" style="endArrow=none;html=1;rounded=0;entryX=0;entryY=1;entryDx=0;entryDy=0;exitX=1;exitY=0;exitDx=0;exitDy=0;strokeWidth=2;" edge="1" parent="F2WLsx3-h_1X0e1XVa5v-85">
          <mxGeometry width="50" height="50" relative="1" as="geometry">
            <mxPoint x="600" y="850" as="sourcePoint" />
            <mxPoint x="650" y="800" as="targetPoint" />
          </mxGeometry>
        </mxCell>
        <mxCell id="F2WLsx3-h_1X0e1XVa5v-276" value="" style="endArrow=none;html=1;rounded=0;entryX=1;entryY=1;entryDx=0;entryDy=0;exitX=0;exitY=0;exitDx=0;exitDy=0;strokeWidth=2;" edge="1" parent="F2WLsx3-h_1X0e1XVa5v-85">
          <mxGeometry width="50" height="50" relative="1" as="geometry">
            <mxPoint x="350" y="850" as="sourcePoint" />
            <mxPoint x="300" y="800" as="targetPoint" />
          </mxGeometry>
        </mxCell>
        <mxCell id="F2WLsx3-h_1X0e1XVa5v-277" value="" style="endArrow=none;html=1;rounded=0;entryX=1;entryY=1;entryDx=0;entryDy=0;exitX=0;exitY=0;exitDx=0;exitDy=0;strokeWidth=2;" edge="1" parent="F2WLsx3-h_1X0e1XVa5v-85">
          <mxGeometry width="50" height="50" relative="1" as="geometry">
            <mxPoint x="550" y="850" as="sourcePoint" />
            <mxPoint x="500" y="800" as="targetPoint" />
          </mxGeometry>
        </mxCell>
        <mxCell id="F2WLsx3-h_1X0e1XVa5v-278" value="" style="endArrow=none;html=1;rounded=0;entryX=1;entryY=0.5;entryDx=0;entryDy=0;exitX=0;exitY=0.5;exitDx=0;exitDy=0;strokeWidth=2;" edge="1" parent="F2WLsx3-h_1X0e1XVa5v-85" source="F2WLsx3-h_1X0e1XVa5v-257" target="F2WLsx3-h_1X0e1XVa5v-252">
          <mxGeometry width="50" height="50" relative="1" as="geometry">
            <mxPoint x="800" y="600" as="sourcePoint" />
            <mxPoint x="750" y="550" as="targetPoint" />
          </mxGeometry>
        </mxCell>
        <mxCell id="F2WLsx3-h_1X0e1XVa5v-279" value="" style="endArrow=none;dashed=1;html=1;rounded=0;strokeWidth=2;entryX=0.5;entryY=1;entryDx=0;entryDy=0;exitX=0.5;exitY=0;exitDx=0;exitDy=0;" edge="1" parent="F2WLsx3-h_1X0e1XVa5v-85" source="F2WLsx3-h_1X0e1XVa5v-280" target="F2WLsx3-h_1X0e1XVa5v-257">
          <mxGeometry width="50" height="50" relative="1" as="geometry">
            <mxPoint x="775" y="950" as="sourcePoint" />
            <mxPoint x="600" y="900" as="targetPoint" />
          </mxGeometry>
        </mxCell>
        <mxCell id="F2WLsx3-h_1X0e1XVa5v-280" value="" style="whiteSpace=wrap;html=1;aspect=fixed;strokeWidth=3;" vertex="1" parent="F2WLsx3-h_1X0e1XVa5v-85">
          <mxGeometry x="750" y="1050" width="50" height="50" as="geometry" />
        </mxCell>
        <mxCell id="F2WLsx3-h_1X0e1XVa5v-281" value="" style="whiteSpace=wrap;html=1;aspect=fixed;strokeWidth=3;" vertex="1" parent="F2WLsx3-h_1X0e1XVa5v-85">
          <mxGeometry x="350" y="1050" width="50" height="50" as="geometry" />
        </mxCell>
        <mxCell id="F2WLsx3-h_1X0e1XVa5v-282" value="" style="whiteSpace=wrap;html=1;aspect=fixed;strokeWidth=3;" vertex="1" parent="F2WLsx3-h_1X0e1XVa5v-85">
          <mxGeometry x="550" y="1050" width="50" height="50" as="geometry" />
        </mxCell>
        <mxCell id="F2WLsx3-h_1X0e1XVa5v-283" value="" style="whiteSpace=wrap;html=1;aspect=fixed;strokeWidth=3;" vertex="1" parent="F2WLsx3-h_1X0e1XVa5v-85">
          <mxGeometry x="450" y="1050" width="50" height="50" as="geometry" />
        </mxCell>
        <mxCell id="F2WLsx3-h_1X0e1XVa5v-284" value="" style="whiteSpace=wrap;html=1;aspect=fixed;strokeWidth=3;" vertex="1" parent="F2WLsx3-h_1X0e1XVa5v-85">
          <mxGeometry x="450" y="1150" width="50" height="50" as="geometry" />
        </mxCell>
        <mxCell id="F2WLsx3-h_1X0e1XVa5v-285" value="" style="whiteSpace=wrap;html=1;aspect=fixed;strokeWidth=3;" vertex="1" parent="F2WLsx3-h_1X0e1XVa5v-85">
          <mxGeometry x="550" y="1250" width="50" height="50" as="geometry" />
        </mxCell>
        <mxCell id="F2WLsx3-h_1X0e1XVa5v-286" value="" style="whiteSpace=wrap;html=1;aspect=fixed;strokeWidth=3;" vertex="1" parent="F2WLsx3-h_1X0e1XVa5v-85">
          <mxGeometry x="650" y="1150" width="50" height="50" as="geometry" />
        </mxCell>
        <mxCell id="F2WLsx3-h_1X0e1XVa5v-287" value="" style="whiteSpace=wrap;html=1;aspect=fixed;strokeWidth=3;" vertex="1" parent="F2WLsx3-h_1X0e1XVa5v-85">
          <mxGeometry x="750" y="1250" width="50" height="50" as="geometry" />
        </mxCell>
        <mxCell id="F2WLsx3-h_1X0e1XVa5v-288" value="" style="whiteSpace=wrap;html=1;aspect=fixed;strokeWidth=3;" vertex="1" parent="F2WLsx3-h_1X0e1XVa5v-85">
          <mxGeometry x="850" y="1250" width="50" height="50" as="geometry" />
        </mxCell>
        <mxCell id="F2WLsx3-h_1X0e1XVa5v-289" value="" style="whiteSpace=wrap;html=1;aspect=fixed;strokeWidth=3;" vertex="1" parent="F2WLsx3-h_1X0e1XVa5v-85">
          <mxGeometry x="650" y="1350" width="50" height="50" as="geometry" />
        </mxCell>
        <mxCell id="F2WLsx3-h_1X0e1XVa5v-290" value="" style="whiteSpace=wrap;html=1;aspect=fixed;strokeWidth=3;" vertex="1" parent="F2WLsx3-h_1X0e1XVa5v-85">
          <mxGeometry x="650" y="1450" width="50" height="50" as="geometry" />
        </mxCell>
        <mxCell id="F2WLsx3-h_1X0e1XVa5v-291" value="" style="whiteSpace=wrap;html=1;aspect=fixed;strokeWidth=3;" vertex="1" parent="F2WLsx3-h_1X0e1XVa5v-85">
          <mxGeometry x="550" y="1550" width="50" height="50" as="geometry" />
        </mxCell>
        <mxCell id="F2WLsx3-h_1X0e1XVa5v-292" value="" style="whiteSpace=wrap;html=1;aspect=fixed;strokeWidth=3;" vertex="1" parent="F2WLsx3-h_1X0e1XVa5v-85">
          <mxGeometry x="450" y="1550" width="50" height="50" as="geometry" />
        </mxCell>
        <mxCell id="F2WLsx3-h_1X0e1XVa5v-293" value="" style="whiteSpace=wrap;html=1;aspect=fixed;strokeWidth=3;" vertex="1" parent="F2WLsx3-h_1X0e1XVa5v-85">
          <mxGeometry x="350" y="1550" width="50" height="50" as="geometry" />
        </mxCell>
        <mxCell id="F2WLsx3-h_1X0e1XVa5v-294" value="" style="whiteSpace=wrap;html=1;aspect=fixed;strokeWidth=3;" vertex="1" parent="F2WLsx3-h_1X0e1XVa5v-85">
          <mxGeometry x="350" y="1450" width="50" height="50" as="geometry" />
        </mxCell>
        <mxCell id="F2WLsx3-h_1X0e1XVa5v-295" value="" style="whiteSpace=wrap;html=1;aspect=fixed;strokeWidth=3;fillColor=#616161;" vertex="1" parent="F2WLsx3-h_1X0e1XVa5v-85">
          <mxGeometry x="250" y="1450" width="50" height="50" as="geometry" />
        </mxCell>
        <mxCell id="F2WLsx3-h_1X0e1XVa5v-296" value="" style="whiteSpace=wrap;html=1;aspect=fixed;strokeWidth=3;fillColor=#616161;" vertex="1" parent="F2WLsx3-h_1X0e1XVa5v-85">
          <mxGeometry x="250" y="1050" width="50" height="50" as="geometry" />
        </mxCell>
        <mxCell id="F2WLsx3-h_1X0e1XVa5v-297" value="" style="endArrow=none;html=1;rounded=0;entryX=0.5;entryY=1;entryDx=0;entryDy=0;exitX=1;exitY=0;exitDx=0;exitDy=0;strokeWidth=2;" edge="1" parent="F2WLsx3-h_1X0e1XVa5v-85" source="F2WLsx3-h_1X0e1XVa5v-286">
          <mxGeometry width="50" height="50" relative="1" as="geometry">
            <mxPoint x="749" y="1150" as="sourcePoint" />
            <mxPoint x="749" y="1100" as="targetPoint" />
          </mxGeometry>
        </mxCell>
        <mxCell id="F2WLsx3-h_1X0e1XVa5v-298" value="" style="endArrow=none;html=1;rounded=0;exitX=1;exitY=0;exitDx=0;exitDy=0;strokeWidth=2;" edge="1" parent="F2WLsx3-h_1X0e1XVa5v-85">
          <mxGeometry width="50" height="50" relative="1" as="geometry">
            <mxPoint x="600" y="1250" as="sourcePoint" />
            <mxPoint x="649" y="1200" as="targetPoint" />
          </mxGeometry>
        </mxCell>
        <mxCell id="F2WLsx3-h_1X0e1XVa5v-299" value="" style="endArrow=none;html=1;rounded=0;entryX=1;entryY=1;entryDx=0;entryDy=0;exitX=0;exitY=0;exitDx=0;exitDy=0;strokeWidth=2;" edge="1" parent="F2WLsx3-h_1X0e1XVa5v-85" source="F2WLsx3-h_1X0e1XVa5v-287" target="F2WLsx3-h_1X0e1XVa5v-286">
          <mxGeometry width="50" height="50" relative="1" as="geometry">
            <mxPoint x="800" y="1250" as="sourcePoint" />
            <mxPoint x="849" y="1200" as="targetPoint" />
          </mxGeometry>
        </mxCell>
        <mxCell id="F2WLsx3-h_1X0e1XVa5v-300" value="" style="endArrow=none;html=1;rounded=0;entryX=1;entryY=1;entryDx=0;entryDy=0;exitX=0;exitY=0;exitDx=0;exitDy=0;strokeWidth=2;" edge="1" parent="F2WLsx3-h_1X0e1XVa5v-85">
          <mxGeometry width="50" height="50" relative="1" as="geometry">
            <mxPoint x="650" y="1150" as="sourcePoint" />
            <mxPoint x="600" y="1100" as="targetPoint" />
            <Array as="points">
              <mxPoint x="600" y="1100" />
            </Array>
          </mxGeometry>
        </mxCell>
        <mxCell id="F2WLsx3-h_1X0e1XVa5v-301" value="" style="endArrow=none;html=1;rounded=0;entryX=1;entryY=1;entryDx=0;entryDy=0;exitX=0;exitY=0;exitDx=0;exitDy=0;strokeWidth=2;" edge="1" parent="F2WLsx3-h_1X0e1XVa5v-85">
          <mxGeometry width="50" height="50" relative="1" as="geometry">
            <mxPoint x="550" y="1250" as="sourcePoint" />
            <mxPoint x="500" y="1200" as="targetPoint" />
            <Array as="points">
              <mxPoint x="500" y="1200" />
            </Array>
          </mxGeometry>
        </mxCell>
        <mxCell id="F2WLsx3-h_1X0e1XVa5v-302" value="" style="endArrow=none;html=1;rounded=0;entryX=1;entryY=1;entryDx=0;entryDy=0;exitX=0;exitY=0;exitDx=0;exitDy=0;strokeWidth=2;" edge="1" parent="F2WLsx3-h_1X0e1XVa5v-85">
          <mxGeometry width="50" height="50" relative="1" as="geometry">
            <mxPoint x="650" y="1350" as="sourcePoint" />
            <mxPoint x="600" y="1300" as="targetPoint" />
            <Array as="points">
              <mxPoint x="600" y="1300" />
            </Array>
          </mxGeometry>
        </mxCell>
        <mxCell id="F2WLsx3-h_1X0e1XVa5v-303" value="" style="endArrow=none;html=1;rounded=0;exitX=1;exitY=0;exitDx=0;exitDy=0;strokeWidth=2;" edge="1" parent="F2WLsx3-h_1X0e1XVa5v-85">
          <mxGeometry width="50" height="50" relative="1" as="geometry">
            <mxPoint x="700" y="1350" as="sourcePoint" />
            <mxPoint x="749" y="1300" as="targetPoint" />
          </mxGeometry>
        </mxCell>
        <mxCell id="F2WLsx3-h_1X0e1XVa5v-304" value="" style="endArrow=none;html=1;rounded=0;entryX=1;entryY=0.5;entryDx=0;entryDy=0;exitX=0;exitY=0.5;exitDx=0;exitDy=0;strokeWidth=2;" edge="1" parent="F2WLsx3-h_1X0e1XVa5v-85">
          <mxGeometry width="50" height="50" relative="1" as="geometry">
            <mxPoint x="850" y="1274.5" as="sourcePoint" />
            <mxPoint x="800" y="1274.5" as="targetPoint" />
          </mxGeometry>
        </mxCell>
        <mxCell id="F2WLsx3-h_1X0e1XVa5v-305" value="" style="endArrow=none;html=1;rounded=0;entryX=1;entryY=0.5;entryDx=0;entryDy=0;exitX=0;exitY=0.5;exitDx=0;exitDy=0;strokeWidth=2;" edge="1" parent="F2WLsx3-h_1X0e1XVa5v-85">
          <mxGeometry width="50" height="50" relative="1" as="geometry">
            <mxPoint x="550" y="1074.5" as="sourcePoint" />
            <mxPoint x="500" y="1074.5" as="targetPoint" />
          </mxGeometry>
        </mxCell>
        <mxCell id="F2WLsx3-h_1X0e1XVa5v-306" value="" style="endArrow=none;html=1;rounded=0;entryX=0.5;entryY=0;entryDx=0;entryDy=0;exitX=0.5;exitY=1;exitDx=0;exitDy=0;strokeWidth=2;" edge="1" parent="F2WLsx3-h_1X0e1XVa5v-85" source="F2WLsx3-h_1X0e1XVa5v-289" target="F2WLsx3-h_1X0e1XVa5v-290">
          <mxGeometry width="50" height="50" relative="1" as="geometry">
            <mxPoint x="450" y="1074.5" as="sourcePoint" />
            <mxPoint x="400" y="1074.5" as="targetPoint" />
          </mxGeometry>
        </mxCell>
        <mxCell id="F2WLsx3-h_1X0e1XVa5v-307" value="" style="endArrow=none;html=1;rounded=0;entryX=1;entryY=0.5;entryDx=0;entryDy=0;exitX=0;exitY=0.5;exitDx=0;exitDy=0;strokeWidth=2;" edge="1" parent="F2WLsx3-h_1X0e1XVa5v-85">
          <mxGeometry width="50" height="50" relative="1" as="geometry">
            <mxPoint x="450" y="1574.5" as="sourcePoint" />
            <mxPoint x="400" y="1574.5" as="targetPoint" />
          </mxGeometry>
        </mxCell>
        <mxCell id="F2WLsx3-h_1X0e1XVa5v-308" value="" style="endArrow=none;dashed=1;html=1;rounded=0;strokeWidth=2;entryX=1;entryY=0.5;entryDx=0;entryDy=0;exitX=0;exitY=0.5;exitDx=0;exitDy=0;" edge="1" parent="F2WLsx3-h_1X0e1XVa5v-85" source="F2WLsx3-h_1X0e1XVa5v-283" target="F2WLsx3-h_1X0e1XVa5v-281">
          <mxGeometry width="50" height="50" relative="1" as="geometry">
            <mxPoint x="825" y="1100" as="sourcePoint" />
            <mxPoint x="825" y="850" as="targetPoint" />
          </mxGeometry>
        </mxCell>
        <mxCell id="F2WLsx3-h_1X0e1XVa5v-309" value="" style="endArrow=none;dashed=1;html=1;rounded=0;strokeWidth=2;entryX=1;entryY=0.5;entryDx=0;entryDy=0;exitX=0;exitY=0.5;exitDx=0;exitDy=0;" edge="1" parent="F2WLsx3-h_1X0e1XVa5v-85">
          <mxGeometry width="50" height="50" relative="1" as="geometry">
            <mxPoint x="350" y="1074.5" as="sourcePoint" />
            <mxPoint x="300" y="1074.5" as="targetPoint" />
          </mxGeometry>
        </mxCell>
        <mxCell id="F2WLsx3-h_1X0e1XVa5v-310" value="" style="endArrow=none;dashed=1;html=1;rounded=0;strokeWidth=2;entryX=1;entryY=0.5;entryDx=0;entryDy=0;exitX=0;exitY=0.5;exitDx=0;exitDy=0;" edge="1" parent="F2WLsx3-h_1X0e1XVa5v-85">
          <mxGeometry width="50" height="50" relative="1" as="geometry">
            <mxPoint x="350" y="1474.5" as="sourcePoint" />
            <mxPoint x="300" y="1474.5" as="targetPoint" />
          </mxGeometry>
        </mxCell>
        <mxCell id="F2WLsx3-h_1X0e1XVa5v-311" value="" style="endArrow=none;dashed=1;html=1;rounded=0;strokeWidth=2;entryX=1;entryY=0.5;entryDx=0;entryDy=0;exitX=0;exitY=0.5;exitDx=0;exitDy=0;" edge="1" parent="F2WLsx3-h_1X0e1XVa5v-85">
          <mxGeometry width="50" height="50" relative="1" as="geometry">
            <mxPoint x="550" y="1574.5" as="sourcePoint" />
            <mxPoint x="500" y="1574.5" as="targetPoint" />
          </mxGeometry>
        </mxCell>
        <mxCell id="F2WLsx3-h_1X0e1XVa5v-312" value="" style="endArrow=none;dashed=1;html=1;rounded=0;strokeWidth=2;entryX=0.5;entryY=1;entryDx=0;entryDy=0;exitX=0.5;exitY=0;exitDx=0;exitDy=0;" edge="1" parent="F2WLsx3-h_1X0e1XVa5v-85" source="F2WLsx3-h_1X0e1XVa5v-293" target="F2WLsx3-h_1X0e1XVa5v-294">
          <mxGeometry width="50" height="50" relative="1" as="geometry">
            <mxPoint x="400" y="1524.5" as="sourcePoint" />
            <mxPoint x="350" y="1524.5" as="targetPoint" />
          </mxGeometry>
        </mxCell>
        <mxCell id="F2WLsx3-h_1X0e1XVa5v-313" value="" style="endArrow=none;html=1;rounded=0;exitX=1;exitY=0;exitDx=0;exitDy=0;strokeWidth=2;" edge="1" parent="F2WLsx3-h_1X0e1XVa5v-85">
          <mxGeometry width="50" height="50" relative="1" as="geometry">
            <mxPoint x="601" y="1550" as="sourcePoint" />
            <mxPoint x="650" y="1500" as="targetPoint" />
          </mxGeometry>
        </mxCell>
        <mxCell id="F2WLsx3-h_1X0e1XVa5v-315" value="Text Layer" parent="0" />
        <mxCell id="F2WLsx3-h_1X0e1XVa5v-316" value="" style="whiteSpace=wrap;html=1;aspect=fixed;strokeWidth=3;fontFamily=Amarante;fontSource=https%3A%2F%2Ffonts.googleapis.com%2Fcss%3Ffamily%3DAmarante;" vertex="1" parent="F2WLsx3-h_1X0e1XVa5v-315">
          <mxGeometry x="350" y="350" width="50" height="50" as="geometry" />
        </mxCell>
        <mxCell id="F2WLsx3-h_1X0e1XVa5v-317" value="" style="whiteSpace=wrap;html=1;aspect=fixed;strokeWidth=3;fontFamily=Amarante;fontSource=https%3A%2F%2Ffonts.googleapis.com%2Fcss%3Ffamily%3DAmarante;" vertex="1" parent="F2WLsx3-h_1X0e1XVa5v-315">
          <mxGeometry x="250" y="450" width="50" height="50" as="geometry" />
        </mxCell>
        <mxCell id="F2WLsx3-h_1X0e1XVa5v-318" value="" style="whiteSpace=wrap;html=1;aspect=fixed;strokeWidth=3;fontFamily=Amarante;fontSource=https%3A%2F%2Ffonts.googleapis.com%2Fcss%3Ffamily%3DAmarante;" vertex="1" parent="F2WLsx3-h_1X0e1XVa5v-315">
          <mxGeometry x="450" y="450" width="50" height="50" as="geometry" />
        </mxCell>
        <mxCell id="F2WLsx3-h_1X0e1XVa5v-319" value="" style="whiteSpace=wrap;html=1;aspect=fixed;strokeWidth=3;fontFamily=Amarante;fontSource=https%3A%2F%2Ffonts.googleapis.com%2Fcss%3Ffamily%3DAmarante;" vertex="1" parent="F2WLsx3-h_1X0e1XVa5v-315">
          <mxGeometry x="250" y="550" width="50" height="50" as="geometry" />
        </mxCell>
        <mxCell id="F2WLsx3-h_1X0e1XVa5v-320" value="" style="whiteSpace=wrap;html=1;aspect=fixed;strokeWidth=3;fontFamily=Amarante;fontSource=https%3A%2F%2Ffonts.googleapis.com%2Fcss%3Ffamily%3DAmarante;" vertex="1" parent="F2WLsx3-h_1X0e1XVa5v-315">
          <mxGeometry x="250" y="650" width="50" height="50" as="geometry" />
        </mxCell>
        <mxCell id="F2WLsx3-h_1X0e1XVa5v-321" value="" style="whiteSpace=wrap;html=1;aspect=fixed;strokeWidth=3;fontFamily=Amarante;fontSource=https%3A%2F%2Ffonts.googleapis.com%2Fcss%3Ffamily%3DAmarante;" vertex="1" parent="F2WLsx3-h_1X0e1XVa5v-315">
          <mxGeometry x="250" y="750" width="50" height="50" as="geometry" />
        </mxCell>
        <mxCell id="F2WLsx3-h_1X0e1XVa5v-322" value="" style="whiteSpace=wrap;html=1;aspect=fixed;strokeWidth=3;fontFamily=Amarante;fontSource=https%3A%2F%2Ffonts.googleapis.com%2Fcss%3Ffamily%3DAmarante;" vertex="1" parent="F2WLsx3-h_1X0e1XVa5v-315">
          <mxGeometry x="450" y="550" width="50" height="50" as="geometry" />
        </mxCell>
        <mxCell id="F2WLsx3-h_1X0e1XVa5v-323" value="" style="whiteSpace=wrap;html=1;aspect=fixed;strokeWidth=3;fontFamily=Amarante;fontSource=https%3A%2F%2Ffonts.googleapis.com%2Fcss%3Ffamily%3DAmarante;" vertex="1" parent="F2WLsx3-h_1X0e1XVa5v-315">
          <mxGeometry x="450" y="650" width="50" height="50" as="geometry" />
        </mxCell>
        <mxCell id="F2WLsx3-h_1X0e1XVa5v-324" value="" style="whiteSpace=wrap;html=1;aspect=fixed;strokeWidth=3;fontFamily=Amarante;fontSource=https%3A%2F%2Ffonts.googleapis.com%2Fcss%3Ffamily%3DAmarante;" vertex="1" parent="F2WLsx3-h_1X0e1XVa5v-315">
          <mxGeometry x="450" y="750" width="50" height="50" as="geometry" />
        </mxCell>
        <mxCell id="F2WLsx3-h_1X0e1XVa5v-325" value="" style="whiteSpace=wrap;html=1;aspect=fixed;strokeWidth=3;fontFamily=Amarante;fontSource=https%3A%2F%2Ffonts.googleapis.com%2Fcss%3Ffamily%3DAmarante;" vertex="1" parent="F2WLsx3-h_1X0e1XVa5v-315">
          <mxGeometry x="350" y="850" width="50" height="50" as="geometry" />
        </mxCell>
        <mxCell id="F2WLsx3-h_1X0e1XVa5v-326" value="" style="whiteSpace=wrap;html=1;aspect=fixed;strokeWidth=3;fontFamily=Amarante;fontSource=https%3A%2F%2Ffonts.googleapis.com%2Fcss%3Ffamily%3DAmarante;" vertex="1" parent="F2WLsx3-h_1X0e1XVa5v-315">
          <mxGeometry x="550" y="350" width="50" height="50" as="geometry" />
        </mxCell>
        <mxCell id="F2WLsx3-h_1X0e1XVa5v-327" value="" style="whiteSpace=wrap;html=1;aspect=fixed;strokeWidth=3;fontFamily=Amarante;fontSource=https%3A%2F%2Ffonts.googleapis.com%2Fcss%3Ffamily%3DAmarante;" vertex="1" parent="F2WLsx3-h_1X0e1XVa5v-315">
          <mxGeometry x="650" y="450" width="50" height="50" as="geometry" />
        </mxCell>
        <mxCell id="F2WLsx3-h_1X0e1XVa5v-328" value="" style="whiteSpace=wrap;html=1;aspect=fixed;strokeWidth=3;fontFamily=Amarante;fontSource=https%3A%2F%2Ffonts.googleapis.com%2Fcss%3Ffamily%3DAmarante;" vertex="1" parent="F2WLsx3-h_1X0e1XVa5v-315">
          <mxGeometry x="650" y="550" width="50" height="50" as="geometry" />
        </mxCell>
        <mxCell id="F2WLsx3-h_1X0e1XVa5v-329" value="" style="whiteSpace=wrap;html=1;aspect=fixed;strokeWidth=3;fontFamily=Amarante;fontSource=https%3A%2F%2Ffonts.googleapis.com%2Fcss%3Ffamily%3DAmarante;" vertex="1" parent="F2WLsx3-h_1X0e1XVa5v-315">
          <mxGeometry x="650" y="650" width="50" height="50" as="geometry" />
        </mxCell>
        <mxCell id="F2WLsx3-h_1X0e1XVa5v-330" value="" style="whiteSpace=wrap;html=1;aspect=fixed;strokeWidth=3;fontFamily=Amarante;fontSource=https%3A%2F%2Ffonts.googleapis.com%2Fcss%3Ffamily%3DAmarante;" vertex="1" parent="F2WLsx3-h_1X0e1XVa5v-315">
          <mxGeometry x="650" y="750" width="50" height="50" as="geometry" />
        </mxCell>
        <mxCell id="F2WLsx3-h_1X0e1XVa5v-331" value="" style="whiteSpace=wrap;html=1;aspect=fixed;strokeWidth=3;fontFamily=Amarante;fontSource=https%3A%2F%2Ffonts.googleapis.com%2Fcss%3Ffamily%3DAmarante;" vertex="1" parent="F2WLsx3-h_1X0e1XVa5v-315">
          <mxGeometry x="550" y="850" width="50" height="50" as="geometry" />
        </mxCell>
        <mxCell id="F2WLsx3-h_1X0e1XVa5v-332" value="" style="whiteSpace=wrap;html=1;aspect=fixed;strokeWidth=3;fontFamily=Amarante;fontSource=https%3A%2F%2Ffonts.googleapis.com%2Fcss%3Ffamily%3DAmarante;" vertex="1" parent="F2WLsx3-h_1X0e1XVa5v-315">
          <mxGeometry x="750" y="450" width="50" height="50" as="geometry" />
        </mxCell>
        <mxCell id="F2WLsx3-h_1X0e1XVa5v-333" value="" style="whiteSpace=wrap;html=1;aspect=fixed;strokeWidth=3;fontFamily=Amarante;fontSource=https%3A%2F%2Ffonts.googleapis.com%2Fcss%3Ffamily%3DAmarante;" vertex="1" parent="F2WLsx3-h_1X0e1XVa5v-315">
          <mxGeometry x="750" y="550" width="50" height="50" as="geometry" />
        </mxCell>
        <mxCell id="F2WLsx3-h_1X0e1XVa5v-334" value="" style="whiteSpace=wrap;html=1;aspect=fixed;strokeWidth=3;fontFamily=Amarante;fontSource=https%3A%2F%2Ffonts.googleapis.com%2Fcss%3Ffamily%3DAmarante;" vertex="1" parent="F2WLsx3-h_1X0e1XVa5v-315">
          <mxGeometry x="750" y="650" width="50" height="50" as="geometry" />
        </mxCell>
        <mxCell id="F2WLsx3-h_1X0e1XVa5v-335" value="" style="whiteSpace=wrap;html=1;aspect=fixed;strokeWidth=3;fontFamily=Amarante;fontSource=https%3A%2F%2Ffonts.googleapis.com%2Fcss%3Ffamily%3DAmarante;" vertex="1" parent="F2WLsx3-h_1X0e1XVa5v-315">
          <mxGeometry x="750" y="750" width="50" height="50" as="geometry" />
        </mxCell>
        <mxCell id="F2WLsx3-h_1X0e1XVa5v-336" value="" style="endArrow=none;html=1;rounded=0;entryX=0.5;entryY=1;entryDx=0;entryDy=0;exitX=0.5;exitY=0;exitDx=0;exitDy=0;strokeWidth=2;fontFamily=Amarante;fontSource=https%3A%2F%2Ffonts.googleapis.com%2Fcss%3Ffamily%3DAmarante;" edge="1" parent="F2WLsx3-h_1X0e1XVa5v-315" source="F2WLsx3-h_1X0e1XVa5v-319" target="F2WLsx3-h_1X0e1XVa5v-317">
          <mxGeometry width="50" height="50" relative="1" as="geometry">
            <mxPoint x="350" y="650" as="sourcePoint" />
            <mxPoint x="400" y="600" as="targetPoint" />
          </mxGeometry>
        </mxCell>
        <mxCell id="F2WLsx3-h_1X0e1XVa5v-337" value="" style="endArrow=none;html=1;rounded=0;entryX=0;entryY=1;entryDx=0;entryDy=0;exitX=1;exitY=0;exitDx=0;exitDy=0;strokeWidth=2;fontFamily=Amarante;fontSource=https%3A%2F%2Ffonts.googleapis.com%2Fcss%3Ffamily%3DAmarante;" edge="1" parent="F2WLsx3-h_1X0e1XVa5v-315" source="F2WLsx3-h_1X0e1XVa5v-317" target="F2WLsx3-h_1X0e1XVa5v-316">
          <mxGeometry width="50" height="50" relative="1" as="geometry">
            <mxPoint x="325" y="600" as="sourcePoint" />
            <mxPoint x="325" y="550" as="targetPoint" />
          </mxGeometry>
        </mxCell>
        <mxCell id="F2WLsx3-h_1X0e1XVa5v-338" value="" style="endArrow=none;html=1;rounded=0;entryX=1;entryY=1;entryDx=0;entryDy=0;exitX=0;exitY=0;exitDx=0;exitDy=0;strokeWidth=2;fontFamily=Amarante;fontSource=https%3A%2F%2Ffonts.googleapis.com%2Fcss%3Ffamily%3DAmarante;" edge="1" parent="F2WLsx3-h_1X0e1XVa5v-315" source="F2WLsx3-h_1X0e1XVa5v-318" target="F2WLsx3-h_1X0e1XVa5v-316">
          <mxGeometry width="50" height="50" relative="1" as="geometry">
            <mxPoint x="375" y="650" as="sourcePoint" />
            <mxPoint x="375" y="600" as="targetPoint" />
          </mxGeometry>
        </mxCell>
        <mxCell id="F2WLsx3-h_1X0e1XVa5v-339" value="" style="endArrow=none;html=1;rounded=0;entryX=0.5;entryY=1;entryDx=0;entryDy=0;exitX=0.5;exitY=0;exitDx=0;exitDy=0;strokeWidth=2;fontFamily=Amarante;fontSource=https%3A%2F%2Ffonts.googleapis.com%2Fcss%3Ffamily%3DAmarante;" edge="1" parent="F2WLsx3-h_1X0e1XVa5v-315">
          <mxGeometry width="50" height="50" relative="1" as="geometry">
            <mxPoint x="274.5" y="650" as="sourcePoint" />
            <mxPoint x="274.5" y="600" as="targetPoint" />
          </mxGeometry>
        </mxCell>
        <mxCell id="F2WLsx3-h_1X0e1XVa5v-340" value="" style="endArrow=none;html=1;rounded=0;entryX=0.5;entryY=1;entryDx=0;entryDy=0;exitX=0.5;exitY=0;exitDx=0;exitDy=0;strokeWidth=2;fontFamily=Amarante;fontSource=https%3A%2F%2Ffonts.googleapis.com%2Fcss%3Ffamily%3DAmarante;" edge="1" parent="F2WLsx3-h_1X0e1XVa5v-315">
          <mxGeometry width="50" height="50" relative="1" as="geometry">
            <mxPoint x="274.5" y="750" as="sourcePoint" />
            <mxPoint x="274.5" y="700" as="targetPoint" />
          </mxGeometry>
        </mxCell>
        <mxCell id="F2WLsx3-h_1X0e1XVa5v-341" value="" style="endArrow=none;html=1;rounded=0;entryX=0.5;entryY=1;entryDx=0;entryDy=0;exitX=0.5;exitY=0;exitDx=0;exitDy=0;strokeWidth=2;fontFamily=Amarante;fontSource=https%3A%2F%2Ffonts.googleapis.com%2Fcss%3Ffamily%3DAmarante;" edge="1" parent="F2WLsx3-h_1X0e1XVa5v-315">
          <mxGeometry width="50" height="50" relative="1" as="geometry">
            <mxPoint x="474.5" y="550" as="sourcePoint" />
            <mxPoint x="474.5" y="500" as="targetPoint" />
          </mxGeometry>
        </mxCell>
        <mxCell id="F2WLsx3-h_1X0e1XVa5v-342" value="" style="endArrow=none;html=1;rounded=0;entryX=0.5;entryY=1;entryDx=0;entryDy=0;exitX=0.5;exitY=0;exitDx=0;exitDy=0;strokeWidth=2;fontFamily=Amarante;fontSource=https%3A%2F%2Ffonts.googleapis.com%2Fcss%3Ffamily%3DAmarante;" edge="1" parent="F2WLsx3-h_1X0e1XVa5v-315">
          <mxGeometry width="50" height="50" relative="1" as="geometry">
            <mxPoint x="475" y="750" as="sourcePoint" />
            <mxPoint x="475" y="700" as="targetPoint" />
          </mxGeometry>
        </mxCell>
        <mxCell id="F2WLsx3-h_1X0e1XVa5v-343" value="" style="endArrow=none;html=1;rounded=0;entryX=0.5;entryY=1;entryDx=0;entryDy=0;exitX=0.5;exitY=0;exitDx=0;exitDy=0;strokeWidth=2;fontFamily=Amarante;fontSource=https%3A%2F%2Ffonts.googleapis.com%2Fcss%3Ffamily%3DAmarante;" edge="1" parent="F2WLsx3-h_1X0e1XVa5v-315">
          <mxGeometry width="50" height="50" relative="1" as="geometry">
            <mxPoint x="474.5" y="650" as="sourcePoint" />
            <mxPoint x="474.5" y="600" as="targetPoint" />
          </mxGeometry>
        </mxCell>
        <mxCell id="F2WLsx3-h_1X0e1XVa5v-344" value="" style="endArrow=none;html=1;rounded=0;entryX=0.5;entryY=1;entryDx=0;entryDy=0;exitX=0.5;exitY=0;exitDx=0;exitDy=0;strokeWidth=2;fontFamily=Amarante;fontSource=https%3A%2F%2Ffonts.googleapis.com%2Fcss%3Ffamily%3DAmarante;" edge="1" parent="F2WLsx3-h_1X0e1XVa5v-315">
          <mxGeometry width="50" height="50" relative="1" as="geometry">
            <mxPoint x="674.5" y="750" as="sourcePoint" />
            <mxPoint x="674.5" y="700" as="targetPoint" />
          </mxGeometry>
        </mxCell>
        <mxCell id="F2WLsx3-h_1X0e1XVa5v-345" value="" style="endArrow=none;html=1;rounded=0;entryX=0.5;entryY=1;entryDx=0;entryDy=0;exitX=0.5;exitY=0;exitDx=0;exitDy=0;strokeWidth=2;fontFamily=Amarante;fontSource=https%3A%2F%2Ffonts.googleapis.com%2Fcss%3Ffamily%3DAmarante;" edge="1" parent="F2WLsx3-h_1X0e1XVa5v-315">
          <mxGeometry width="50" height="50" relative="1" as="geometry">
            <mxPoint x="774.5" y="750" as="sourcePoint" />
            <mxPoint x="774.5" y="700" as="targetPoint" />
          </mxGeometry>
        </mxCell>
        <mxCell id="F2WLsx3-h_1X0e1XVa5v-346" value="" style="endArrow=none;html=1;rounded=0;entryX=0.5;entryY=1;entryDx=0;entryDy=0;exitX=0.5;exitY=0;exitDx=0;exitDy=0;strokeWidth=2;fontFamily=Amarante;fontSource=https%3A%2F%2Ffonts.googleapis.com%2Fcss%3Ffamily%3DAmarante;" edge="1" parent="F2WLsx3-h_1X0e1XVa5v-315">
          <mxGeometry width="50" height="50" relative="1" as="geometry">
            <mxPoint x="674.5" y="650" as="sourcePoint" />
            <mxPoint x="674.5" y="600" as="targetPoint" />
          </mxGeometry>
        </mxCell>
        <mxCell id="F2WLsx3-h_1X0e1XVa5v-347" value="" style="endArrow=none;html=1;rounded=0;entryX=0.5;entryY=1;entryDx=0;entryDy=0;exitX=0.5;exitY=0;exitDx=0;exitDy=0;strokeWidth=2;fontFamily=Amarante;fontSource=https%3A%2F%2Ffonts.googleapis.com%2Fcss%3Ffamily%3DAmarante;" edge="1" parent="F2WLsx3-h_1X0e1XVa5v-315">
          <mxGeometry width="50" height="50" relative="1" as="geometry">
            <mxPoint x="774.5" y="650" as="sourcePoint" />
            <mxPoint x="774.5" y="600" as="targetPoint" />
          </mxGeometry>
        </mxCell>
        <mxCell id="F2WLsx3-h_1X0e1XVa5v-348" value="" style="endArrow=none;html=1;rounded=0;entryX=0.5;entryY=1;entryDx=0;entryDy=0;exitX=0.5;exitY=0;exitDx=0;exitDy=0;strokeWidth=2;fontFamily=Amarante;fontSource=https%3A%2F%2Ffonts.googleapis.com%2Fcss%3Ffamily%3DAmarante;" edge="1" parent="F2WLsx3-h_1X0e1XVa5v-315">
          <mxGeometry width="50" height="50" relative="1" as="geometry">
            <mxPoint x="774.5" y="550" as="sourcePoint" />
            <mxPoint x="774.5" y="500" as="targetPoint" />
          </mxGeometry>
        </mxCell>
        <mxCell id="F2WLsx3-h_1X0e1XVa5v-349" value="" style="endArrow=none;html=1;rounded=0;entryX=0.5;entryY=1;entryDx=0;entryDy=0;exitX=0.5;exitY=0;exitDx=0;exitDy=0;strokeWidth=2;fontFamily=Amarante;fontSource=https%3A%2F%2Ffonts.googleapis.com%2Fcss%3Ffamily%3DAmarante;" edge="1" parent="F2WLsx3-h_1X0e1XVa5v-315">
          <mxGeometry width="50" height="50" relative="1" as="geometry">
            <mxPoint x="674.5" y="550" as="sourcePoint" />
            <mxPoint x="674.5" y="500" as="targetPoint" />
          </mxGeometry>
        </mxCell>
        <mxCell id="F2WLsx3-h_1X0e1XVa5v-350" value="" style="endArrow=none;html=1;rounded=0;entryX=1;entryY=1;entryDx=0;entryDy=0;exitX=0;exitY=0;exitDx=0;exitDy=0;strokeWidth=2;fontFamily=Amarante;fontSource=https%3A%2F%2Ffonts.googleapis.com%2Fcss%3Ffamily%3DAmarante;" edge="1" parent="F2WLsx3-h_1X0e1XVa5v-315">
          <mxGeometry width="50" height="50" relative="1" as="geometry">
            <mxPoint x="650" y="450" as="sourcePoint" />
            <mxPoint x="600" y="400" as="targetPoint" />
          </mxGeometry>
        </mxCell>
        <mxCell id="F2WLsx3-h_1X0e1XVa5v-351" value="" style="endArrow=none;html=1;rounded=0;entryX=0;entryY=1;entryDx=0;entryDy=0;exitX=1;exitY=0;exitDx=0;exitDy=0;strokeWidth=2;fontFamily=Amarante;fontSource=https%3A%2F%2Ffonts.googleapis.com%2Fcss%3Ffamily%3DAmarante;" edge="1" parent="F2WLsx3-h_1X0e1XVa5v-315">
          <mxGeometry width="50" height="50" relative="1" as="geometry">
            <mxPoint x="500" y="450" as="sourcePoint" />
            <mxPoint x="550" y="400" as="targetPoint" />
          </mxGeometry>
        </mxCell>
        <mxCell id="F2WLsx3-h_1X0e1XVa5v-352" value="" style="endArrow=none;html=1;rounded=0;entryX=0;entryY=1;entryDx=0;entryDy=0;exitX=1;exitY=0;exitDx=0;exitDy=0;strokeWidth=2;fontFamily=Amarante;fontSource=https%3A%2F%2Ffonts.googleapis.com%2Fcss%3Ffamily%3DAmarante;" edge="1" parent="F2WLsx3-h_1X0e1XVa5v-315">
          <mxGeometry width="50" height="50" relative="1" as="geometry">
            <mxPoint x="400" y="850" as="sourcePoint" />
            <mxPoint x="450" y="800" as="targetPoint" />
          </mxGeometry>
        </mxCell>
        <mxCell id="F2WLsx3-h_1X0e1XVa5v-353" value="" style="endArrow=none;html=1;rounded=0;entryX=0;entryY=1;entryDx=0;entryDy=0;exitX=1;exitY=0;exitDx=0;exitDy=0;strokeWidth=2;fontFamily=Amarante;fontSource=https%3A%2F%2Ffonts.googleapis.com%2Fcss%3Ffamily%3DAmarante;" edge="1" parent="F2WLsx3-h_1X0e1XVa5v-315">
          <mxGeometry width="50" height="50" relative="1" as="geometry">
            <mxPoint x="600" y="850" as="sourcePoint" />
            <mxPoint x="650" y="800" as="targetPoint" />
          </mxGeometry>
        </mxCell>
        <mxCell id="F2WLsx3-h_1X0e1XVa5v-354" value="" style="endArrow=none;html=1;rounded=0;entryX=1;entryY=1;entryDx=0;entryDy=0;exitX=0;exitY=0;exitDx=0;exitDy=0;strokeWidth=2;fontFamily=Amarante;fontSource=https%3A%2F%2Ffonts.googleapis.com%2Fcss%3Ffamily%3DAmarante;" edge="1" parent="F2WLsx3-h_1X0e1XVa5v-315">
          <mxGeometry width="50" height="50" relative="1" as="geometry">
            <mxPoint x="350" y="850" as="sourcePoint" />
            <mxPoint x="300" y="800" as="targetPoint" />
          </mxGeometry>
        </mxCell>
        <mxCell id="F2WLsx3-h_1X0e1XVa5v-355" value="" style="endArrow=none;html=1;rounded=0;entryX=1;entryY=1;entryDx=0;entryDy=0;exitX=0;exitY=0;exitDx=0;exitDy=0;strokeWidth=2;fontFamily=Amarante;fontSource=https%3A%2F%2Ffonts.googleapis.com%2Fcss%3Ffamily%3DAmarante;" edge="1" parent="F2WLsx3-h_1X0e1XVa5v-315">
          <mxGeometry width="50" height="50" relative="1" as="geometry">
            <mxPoint x="550" y="850" as="sourcePoint" />
            <mxPoint x="500" y="800" as="targetPoint" />
          </mxGeometry>
        </mxCell>
        <mxCell id="F2WLsx3-h_1X0e1XVa5v-356" value="" style="endArrow=none;html=1;rounded=0;entryX=1;entryY=0.5;entryDx=0;entryDy=0;exitX=0;exitY=0.5;exitDx=0;exitDy=0;strokeWidth=2;fontFamily=Amarante;fontSource=https%3A%2F%2Ffonts.googleapis.com%2Fcss%3Ffamily%3DAmarante;" edge="1" parent="F2WLsx3-h_1X0e1XVa5v-315" source="F2WLsx3-h_1X0e1XVa5v-335" target="F2WLsx3-h_1X0e1XVa5v-330">
          <mxGeometry width="50" height="50" relative="1" as="geometry">
            <mxPoint x="800" y="600" as="sourcePoint" />
            <mxPoint x="750" y="550" as="targetPoint" />
          </mxGeometry>
        </mxCell>
        <mxCell id="F2WLsx3-h_1X0e1XVa5v-357" value="" style="endArrow=none;dashed=1;html=1;rounded=0;strokeWidth=2;entryX=0.5;entryY=1;entryDx=0;entryDy=0;exitX=0.5;exitY=0;exitDx=0;exitDy=0;fontFamily=Amarante;fontSource=https%3A%2F%2Ffonts.googleapis.com%2Fcss%3Ffamily%3DAmarante;startArrow=none;" edge="1" parent="F2WLsx3-h_1X0e1XVa5v-315" source="F2WLsx3-h_1X0e1XVa5v-404" target="F2WLsx3-h_1X0e1XVa5v-335">
          <mxGeometry width="50" height="50" relative="1" as="geometry">
            <mxPoint x="775" y="950" as="sourcePoint" />
            <mxPoint x="600" y="900" as="targetPoint" />
          </mxGeometry>
        </mxCell>
        <mxCell id="F2WLsx3-h_1X0e1XVa5v-358" value="" style="whiteSpace=wrap;html=1;aspect=fixed;strokeWidth=3;fontFamily=Amarante;fontSource=https%3A%2F%2Ffonts.googleapis.com%2Fcss%3Ffamily%3DAmarante;" vertex="1" parent="F2WLsx3-h_1X0e1XVa5v-315">
          <mxGeometry x="750" y="1050" width="50" height="50" as="geometry" />
        </mxCell>
        <mxCell id="F2WLsx3-h_1X0e1XVa5v-359" value="" style="whiteSpace=wrap;html=1;aspect=fixed;strokeWidth=3;fontFamily=Amarante;fontSource=https%3A%2F%2Ffonts.googleapis.com%2Fcss%3Ffamily%3DAmarante;" vertex="1" parent="F2WLsx3-h_1X0e1XVa5v-315">
          <mxGeometry x="350" y="1050" width="50" height="50" as="geometry" />
        </mxCell>
        <mxCell id="F2WLsx3-h_1X0e1XVa5v-360" value="" style="whiteSpace=wrap;html=1;aspect=fixed;strokeWidth=3;fontFamily=Amarante;fontSource=https%3A%2F%2Ffonts.googleapis.com%2Fcss%3Ffamily%3DAmarante;" vertex="1" parent="F2WLsx3-h_1X0e1XVa5v-315">
          <mxGeometry x="550" y="1050" width="50" height="50" as="geometry" />
        </mxCell>
        <mxCell id="F2WLsx3-h_1X0e1XVa5v-361" value="" style="whiteSpace=wrap;html=1;aspect=fixed;strokeWidth=3;fontFamily=Amarante;fontSource=https%3A%2F%2Ffonts.googleapis.com%2Fcss%3Ffamily%3DAmarante;" vertex="1" parent="F2WLsx3-h_1X0e1XVa5v-315">
          <mxGeometry x="450" y="1050" width="50" height="50" as="geometry" />
        </mxCell>
        <mxCell id="F2WLsx3-h_1X0e1XVa5v-362" value="" style="whiteSpace=wrap;html=1;aspect=fixed;strokeWidth=3;fontFamily=Amarante;fontSource=https%3A%2F%2Ffonts.googleapis.com%2Fcss%3Ffamily%3DAmarante;" vertex="1" parent="F2WLsx3-h_1X0e1XVa5v-315">
          <mxGeometry x="450" y="1150" width="50" height="50" as="geometry" />
        </mxCell>
        <mxCell id="F2WLsx3-h_1X0e1XVa5v-363" value="" style="whiteSpace=wrap;html=1;aspect=fixed;strokeWidth=3;fontFamily=Amarante;fontSource=https%3A%2F%2Ffonts.googleapis.com%2Fcss%3Ffamily%3DAmarante;" vertex="1" parent="F2WLsx3-h_1X0e1XVa5v-315">
          <mxGeometry x="550" y="1250" width="50" height="50" as="geometry" />
        </mxCell>
        <mxCell id="F2WLsx3-h_1X0e1XVa5v-364" value="" style="whiteSpace=wrap;html=1;aspect=fixed;strokeWidth=3;fontFamily=Amarante;fontSource=https%3A%2F%2Ffonts.googleapis.com%2Fcss%3Ffamily%3DAmarante;" vertex="1" parent="F2WLsx3-h_1X0e1XVa5v-315">
          <mxGeometry x="650" y="1150" width="50" height="50" as="geometry" />
        </mxCell>
        <mxCell id="F2WLsx3-h_1X0e1XVa5v-365" value="" style="whiteSpace=wrap;html=1;aspect=fixed;strokeWidth=3;fontFamily=Amarante;fontSource=https%3A%2F%2Ffonts.googleapis.com%2Fcss%3Ffamily%3DAmarante;" vertex="1" parent="F2WLsx3-h_1X0e1XVa5v-315">
          <mxGeometry x="750" y="1250" width="50" height="50" as="geometry" />
        </mxCell>
        <mxCell id="F2WLsx3-h_1X0e1XVa5v-366" value="" style="whiteSpace=wrap;html=1;aspect=fixed;strokeWidth=3;fontFamily=Amarante;fontSource=https%3A%2F%2Ffonts.googleapis.com%2Fcss%3Ffamily%3DAmarante;" vertex="1" parent="F2WLsx3-h_1X0e1XVa5v-315">
          <mxGeometry x="850" y="1250" width="50" height="50" as="geometry" />
        </mxCell>
        <mxCell id="F2WLsx3-h_1X0e1XVa5v-367" value="" style="whiteSpace=wrap;html=1;aspect=fixed;strokeWidth=3;fontFamily=Amarante;fontSource=https%3A%2F%2Ffonts.googleapis.com%2Fcss%3Ffamily%3DAmarante;" vertex="1" parent="F2WLsx3-h_1X0e1XVa5v-315">
          <mxGeometry x="650" y="1350" width="50" height="50" as="geometry" />
        </mxCell>
        <mxCell id="F2WLsx3-h_1X0e1XVa5v-368" value="" style="whiteSpace=wrap;html=1;aspect=fixed;strokeWidth=3;fontFamily=Amarante;fontSource=https%3A%2F%2Ffonts.googleapis.com%2Fcss%3Ffamily%3DAmarante;" vertex="1" parent="F2WLsx3-h_1X0e1XVa5v-315">
          <mxGeometry x="650" y="1450" width="50" height="50" as="geometry" />
        </mxCell>
        <mxCell id="F2WLsx3-h_1X0e1XVa5v-369" value="" style="whiteSpace=wrap;html=1;aspect=fixed;strokeWidth=3;fontFamily=Amarante;fontSource=https%3A%2F%2Ffonts.googleapis.com%2Fcss%3Ffamily%3DAmarante;" vertex="1" parent="F2WLsx3-h_1X0e1XVa5v-315">
          <mxGeometry x="550" y="1550" width="50" height="50" as="geometry" />
        </mxCell>
        <mxCell id="F2WLsx3-h_1X0e1XVa5v-370" value="" style="whiteSpace=wrap;html=1;aspect=fixed;strokeWidth=3;fontFamily=Amarante;fontSource=https%3A%2F%2Ffonts.googleapis.com%2Fcss%3Ffamily%3DAmarante;" vertex="1" parent="F2WLsx3-h_1X0e1XVa5v-315">
          <mxGeometry x="450" y="1550" width="50" height="50" as="geometry" />
        </mxCell>
        <mxCell id="F2WLsx3-h_1X0e1XVa5v-371" value="" style="whiteSpace=wrap;html=1;aspect=fixed;strokeWidth=3;fontFamily=Amarante;fontSource=https%3A%2F%2Ffonts.googleapis.com%2Fcss%3Ffamily%3DAmarante;" vertex="1" parent="F2WLsx3-h_1X0e1XVa5v-315">
          <mxGeometry x="350" y="1550" width="50" height="50" as="geometry" />
        </mxCell>
        <mxCell id="F2WLsx3-h_1X0e1XVa5v-372" value="" style="whiteSpace=wrap;html=1;aspect=fixed;strokeWidth=3;fontFamily=Amarante;fontSource=https%3A%2F%2Ffonts.googleapis.com%2Fcss%3Ffamily%3DAmarante;" vertex="1" parent="F2WLsx3-h_1X0e1XVa5v-315">
          <mxGeometry x="350" y="1450" width="50" height="50" as="geometry" />
        </mxCell>
        <mxCell id="F2WLsx3-h_1X0e1XVa5v-373" value="" style="whiteSpace=wrap;html=1;aspect=fixed;strokeWidth=3;fillColor=#616161;fontFamily=Amarante;fontSource=https%3A%2F%2Ffonts.googleapis.com%2Fcss%3Ffamily%3DAmarante;" vertex="1" parent="F2WLsx3-h_1X0e1XVa5v-315">
          <mxGeometry x="250" y="1450" width="50" height="50" as="geometry" />
        </mxCell>
        <mxCell id="F2WLsx3-h_1X0e1XVa5v-374" value="" style="whiteSpace=wrap;html=1;aspect=fixed;strokeWidth=3;fillColor=#616161;fontFamily=Amarante;fontSource=https%3A%2F%2Ffonts.googleapis.com%2Fcss%3Ffamily%3DAmarante;" vertex="1" parent="F2WLsx3-h_1X0e1XVa5v-315">
          <mxGeometry x="250" y="1050" width="50" height="50" as="geometry" />
        </mxCell>
        <mxCell id="F2WLsx3-h_1X0e1XVa5v-375" value="" style="endArrow=none;html=1;rounded=0;entryX=0.5;entryY=1;entryDx=0;entryDy=0;exitX=1;exitY=0;exitDx=0;exitDy=0;strokeWidth=2;fontFamily=Amarante;fontSource=https%3A%2F%2Ffonts.googleapis.com%2Fcss%3Ffamily%3DAmarante;" edge="1" parent="F2WLsx3-h_1X0e1XVa5v-315" source="F2WLsx3-h_1X0e1XVa5v-364">
          <mxGeometry width="50" height="50" relative="1" as="geometry">
            <mxPoint x="749" y="1150" as="sourcePoint" />
            <mxPoint x="749" y="1100" as="targetPoint" />
          </mxGeometry>
        </mxCell>
        <mxCell id="F2WLsx3-h_1X0e1XVa5v-376" value="" style="endArrow=none;html=1;rounded=0;exitX=1;exitY=0;exitDx=0;exitDy=0;strokeWidth=2;fontFamily=Amarante;fontSource=https%3A%2F%2Ffonts.googleapis.com%2Fcss%3Ffamily%3DAmarante;" edge="1" parent="F2WLsx3-h_1X0e1XVa5v-315">
          <mxGeometry width="50" height="50" relative="1" as="geometry">
            <mxPoint x="600" y="1250" as="sourcePoint" />
            <mxPoint x="649" y="1200" as="targetPoint" />
          </mxGeometry>
        </mxCell>
        <mxCell id="F2WLsx3-h_1X0e1XVa5v-377" value="" style="endArrow=none;html=1;rounded=0;entryX=1;entryY=1;entryDx=0;entryDy=0;exitX=0;exitY=0;exitDx=0;exitDy=0;strokeWidth=2;fontFamily=Amarante;fontSource=https%3A%2F%2Ffonts.googleapis.com%2Fcss%3Ffamily%3DAmarante;" edge="1" parent="F2WLsx3-h_1X0e1XVa5v-315" source="F2WLsx3-h_1X0e1XVa5v-365" target="F2WLsx3-h_1X0e1XVa5v-364">
          <mxGeometry width="50" height="50" relative="1" as="geometry">
            <mxPoint x="800" y="1250" as="sourcePoint" />
            <mxPoint x="849" y="1200" as="targetPoint" />
          </mxGeometry>
        </mxCell>
        <mxCell id="F2WLsx3-h_1X0e1XVa5v-378" value="" style="endArrow=none;html=1;rounded=0;entryX=1;entryY=1;entryDx=0;entryDy=0;exitX=0;exitY=0;exitDx=0;exitDy=0;strokeWidth=2;fontFamily=Amarante;fontSource=https%3A%2F%2Ffonts.googleapis.com%2Fcss%3Ffamily%3DAmarante;" edge="1" parent="F2WLsx3-h_1X0e1XVa5v-315">
          <mxGeometry width="50" height="50" relative="1" as="geometry">
            <mxPoint x="650" y="1150" as="sourcePoint" />
            <mxPoint x="600" y="1100" as="targetPoint" />
            <Array as="points">
              <mxPoint x="600" y="1100" />
            </Array>
          </mxGeometry>
        </mxCell>
        <mxCell id="F2WLsx3-h_1X0e1XVa5v-379" value="" style="endArrow=none;html=1;rounded=0;entryX=1;entryY=1;entryDx=0;entryDy=0;exitX=0;exitY=0;exitDx=0;exitDy=0;strokeWidth=2;fontFamily=Amarante;fontSource=https%3A%2F%2Ffonts.googleapis.com%2Fcss%3Ffamily%3DAmarante;" edge="1" parent="F2WLsx3-h_1X0e1XVa5v-315">
          <mxGeometry width="50" height="50" relative="1" as="geometry">
            <mxPoint x="550" y="1250" as="sourcePoint" />
            <mxPoint x="500" y="1200" as="targetPoint" />
            <Array as="points">
              <mxPoint x="500" y="1200" />
            </Array>
          </mxGeometry>
        </mxCell>
        <mxCell id="F2WLsx3-h_1X0e1XVa5v-380" value="" style="endArrow=none;html=1;rounded=0;entryX=1;entryY=1;entryDx=0;entryDy=0;exitX=0;exitY=0;exitDx=0;exitDy=0;strokeWidth=2;fontFamily=Amarante;fontSource=https%3A%2F%2Ffonts.googleapis.com%2Fcss%3Ffamily%3DAmarante;" edge="1" parent="F2WLsx3-h_1X0e1XVa5v-315">
          <mxGeometry width="50" height="50" relative="1" as="geometry">
            <mxPoint x="650" y="1350" as="sourcePoint" />
            <mxPoint x="600" y="1300" as="targetPoint" />
            <Array as="points">
              <mxPoint x="600" y="1300" />
            </Array>
          </mxGeometry>
        </mxCell>
        <mxCell id="F2WLsx3-h_1X0e1XVa5v-381" value="" style="endArrow=none;html=1;rounded=0;exitX=1;exitY=0;exitDx=0;exitDy=0;strokeWidth=2;fontFamily=Amarante;fontSource=https%3A%2F%2Ffonts.googleapis.com%2Fcss%3Ffamily%3DAmarante;" edge="1" parent="F2WLsx3-h_1X0e1XVa5v-315">
          <mxGeometry width="50" height="50" relative="1" as="geometry">
            <mxPoint x="700" y="1350" as="sourcePoint" />
            <mxPoint x="749" y="1300" as="targetPoint" />
          </mxGeometry>
        </mxCell>
        <mxCell id="F2WLsx3-h_1X0e1XVa5v-382" value="" style="endArrow=none;html=1;rounded=0;entryX=1;entryY=0.5;entryDx=0;entryDy=0;exitX=0;exitY=0.5;exitDx=0;exitDy=0;strokeWidth=2;fontFamily=Amarante;fontSource=https%3A%2F%2Ffonts.googleapis.com%2Fcss%3Ffamily%3DAmarante;" edge="1" parent="F2WLsx3-h_1X0e1XVa5v-315">
          <mxGeometry width="50" height="50" relative="1" as="geometry">
            <mxPoint x="850" y="1274.5" as="sourcePoint" />
            <mxPoint x="800" y="1274.5" as="targetPoint" />
          </mxGeometry>
        </mxCell>
        <mxCell id="F2WLsx3-h_1X0e1XVa5v-383" value="" style="endArrow=none;html=1;rounded=0;entryX=1;entryY=0.5;entryDx=0;entryDy=0;exitX=0;exitY=0.5;exitDx=0;exitDy=0;strokeWidth=2;fontFamily=Amarante;fontSource=https%3A%2F%2Ffonts.googleapis.com%2Fcss%3Ffamily%3DAmarante;" edge="1" parent="F2WLsx3-h_1X0e1XVa5v-315">
          <mxGeometry width="50" height="50" relative="1" as="geometry">
            <mxPoint x="550" y="1074.5" as="sourcePoint" />
            <mxPoint x="500" y="1074.5" as="targetPoint" />
          </mxGeometry>
        </mxCell>
        <mxCell id="F2WLsx3-h_1X0e1XVa5v-384" value="" style="endArrow=none;html=1;rounded=0;entryX=0.5;entryY=0;entryDx=0;entryDy=0;exitX=0.5;exitY=1;exitDx=0;exitDy=0;strokeWidth=2;fontFamily=Amarante;fontSource=https%3A%2F%2Ffonts.googleapis.com%2Fcss%3Ffamily%3DAmarante;" edge="1" parent="F2WLsx3-h_1X0e1XVa5v-315" source="F2WLsx3-h_1X0e1XVa5v-367" target="F2WLsx3-h_1X0e1XVa5v-368">
          <mxGeometry width="50" height="50" relative="1" as="geometry">
            <mxPoint x="450" y="1074.5" as="sourcePoint" />
            <mxPoint x="400" y="1074.5" as="targetPoint" />
          </mxGeometry>
        </mxCell>
        <mxCell id="F2WLsx3-h_1X0e1XVa5v-385" value="" style="endArrow=none;html=1;rounded=0;entryX=1;entryY=0.5;entryDx=0;entryDy=0;exitX=0;exitY=0.5;exitDx=0;exitDy=0;strokeWidth=2;fontFamily=Amarante;fontSource=https%3A%2F%2Ffonts.googleapis.com%2Fcss%3Ffamily%3DAmarante;" edge="1" parent="F2WLsx3-h_1X0e1XVa5v-315">
          <mxGeometry width="50" height="50" relative="1" as="geometry">
            <mxPoint x="450" y="1574.5" as="sourcePoint" />
            <mxPoint x="400" y="1574.5" as="targetPoint" />
          </mxGeometry>
        </mxCell>
        <mxCell id="F2WLsx3-h_1X0e1XVa5v-386" value="" style="endArrow=none;dashed=1;html=1;rounded=0;strokeWidth=2;entryX=1;entryY=0.5;entryDx=0;entryDy=0;exitX=0;exitY=0.5;exitDx=0;exitDy=0;fontFamily=Amarante;fontSource=https%3A%2F%2Ffonts.googleapis.com%2Fcss%3Ffamily%3DAmarante;" edge="1" parent="F2WLsx3-h_1X0e1XVa5v-315" source="F2WLsx3-h_1X0e1XVa5v-361" target="F2WLsx3-h_1X0e1XVa5v-359">
          <mxGeometry width="50" height="50" relative="1" as="geometry">
            <mxPoint x="825" y="1100" as="sourcePoint" />
            <mxPoint x="825" y="850" as="targetPoint" />
          </mxGeometry>
        </mxCell>
        <mxCell id="F2WLsx3-h_1X0e1XVa5v-387" value="" style="endArrow=none;dashed=1;html=1;rounded=0;strokeWidth=2;entryX=1;entryY=0.5;entryDx=0;entryDy=0;exitX=0;exitY=0.5;exitDx=0;exitDy=0;fontFamily=Amarante;fontSource=https%3A%2F%2Ffonts.googleapis.com%2Fcss%3Ffamily%3DAmarante;" edge="1" parent="F2WLsx3-h_1X0e1XVa5v-315">
          <mxGeometry width="50" height="50" relative="1" as="geometry">
            <mxPoint x="350" y="1074.5" as="sourcePoint" />
            <mxPoint x="300" y="1074.5" as="targetPoint" />
          </mxGeometry>
        </mxCell>
        <mxCell id="F2WLsx3-h_1X0e1XVa5v-388" value="" style="endArrow=none;dashed=1;html=1;rounded=0;strokeWidth=2;entryX=1;entryY=0.5;entryDx=0;entryDy=0;exitX=0;exitY=0.5;exitDx=0;exitDy=0;fontFamily=Amarante;fontSource=https%3A%2F%2Ffonts.googleapis.com%2Fcss%3Ffamily%3DAmarante;" edge="1" parent="F2WLsx3-h_1X0e1XVa5v-315">
          <mxGeometry width="50" height="50" relative="1" as="geometry">
            <mxPoint x="350" y="1474.5" as="sourcePoint" />
            <mxPoint x="300" y="1474.5" as="targetPoint" />
          </mxGeometry>
        </mxCell>
        <mxCell id="F2WLsx3-h_1X0e1XVa5v-389" value="" style="endArrow=none;dashed=1;html=1;rounded=0;strokeWidth=2;entryX=1;entryY=0.5;entryDx=0;entryDy=0;exitX=0;exitY=0.5;exitDx=0;exitDy=0;fontFamily=Amarante;fontSource=https%3A%2F%2Ffonts.googleapis.com%2Fcss%3Ffamily%3DAmarante;" edge="1" parent="F2WLsx3-h_1X0e1XVa5v-315">
          <mxGeometry width="50" height="50" relative="1" as="geometry">
            <mxPoint x="550" y="1574.5" as="sourcePoint" />
            <mxPoint x="500" y="1574.5" as="targetPoint" />
          </mxGeometry>
        </mxCell>
        <mxCell id="F2WLsx3-h_1X0e1XVa5v-390" value="" style="endArrow=none;dashed=1;html=1;rounded=0;strokeWidth=2;entryX=0.5;entryY=1;entryDx=0;entryDy=0;exitX=0.5;exitY=0;exitDx=0;exitDy=0;fontFamily=Amarante;fontSource=https%3A%2F%2Ffonts.googleapis.com%2Fcss%3Ffamily%3DAmarante;" edge="1" parent="F2WLsx3-h_1X0e1XVa5v-315" source="F2WLsx3-h_1X0e1XVa5v-371" target="F2WLsx3-h_1X0e1XVa5v-372">
          <mxGeometry width="50" height="50" relative="1" as="geometry">
            <mxPoint x="400" y="1524.5" as="sourcePoint" />
            <mxPoint x="350" y="1524.5" as="targetPoint" />
          </mxGeometry>
        </mxCell>
        <mxCell id="F2WLsx3-h_1X0e1XVa5v-391" value="" style="endArrow=none;html=1;rounded=0;exitX=1;exitY=0;exitDx=0;exitDy=0;strokeWidth=2;fontFamily=Amarante;fontSource=https%3A%2F%2Ffonts.googleapis.com%2Fcss%3Ffamily%3DAmarante;" edge="1" parent="F2WLsx3-h_1X0e1XVa5v-315">
          <mxGeometry width="50" height="50" relative="1" as="geometry">
            <mxPoint x="601" y="1550" as="sourcePoint" />
            <mxPoint x="650" y="1500" as="targetPoint" />
          </mxGeometry>
        </mxCell>
        <mxCell id="F2WLsx3-h_1X0e1XVa5v-392" value="The Forgotten Vineyard" style="text;html=1;resizable=0;autosize=1;align=center;verticalAlign=middle;points=[];fillColor=none;strokeColor=none;rounded=0;shadow=1;sketch=0;fontFamily=Amarante;fontSource=https%3A%2F%2Ffonts.googleapis.com%2Fcss%3Ffamily%3DAmarante;fontSize=75;fontStyle=0" vertex="1" parent="F2WLsx3-h_1X0e1XVa5v-315">
          <mxGeometry x="175" y="75" width="800" height="100" as="geometry" />
        </mxCell>
        <mxCell id="F2WLsx3-h_1X0e1XVa5v-393" value="Ruined&lt;br&gt;Vineyards" style="text;html=1;resizable=0;autosize=1;align=center;verticalAlign=middle;points=[];fillColor=none;strokeColor=none;rounded=0;shadow=1;sketch=0;fontFamily=Amarante;fontSource=https%3A%2F%2Ffonts.googleapis.com%2Fcss%3Ffamily%3DAmarante;fontSize=37;" vertex="1" parent="F2WLsx3-h_1X0e1XVa5v-315">
          <mxGeometry x="850" y="550" width="200" height="100" as="geometry" />
        </mxCell>
        <mxCell id="F2WLsx3-h_1X0e1XVa5v-394" value="Ruined&lt;br&gt;Estate" style="text;html=1;resizable=0;autosize=1;align=center;verticalAlign=middle;points=[];fillColor=none;strokeColor=none;rounded=0;shadow=1;sketch=0;fontFamily=Amarante;fontSource=https%3A%2F%2Ffonts.googleapis.com%2Fcss%3Ffamily%3DAmarante;fontSize=37;" vertex="1" parent="F2WLsx3-h_1X0e1XVa5v-315">
          <mxGeometry x="350" y="1250" width="150" height="100" as="geometry" />
        </mxCell>
        <mxCell id="F2WLsx3-h_1X0e1XVa5v-395" value="Broken&lt;br&gt;Trellises" style="text;html=1;resizable=0;autosize=1;align=center;verticalAlign=middle;points=[];fillColor=none;strokeColor=none;rounded=0;shadow=1;sketch=0;fontFamily=Macondo;fontSource=https%3A%2F%2Ffonts.googleapis.com%2Fcss%3Ffamily%3DMacondo;fontSize=16;fontStyle=1" vertex="1" parent="F2WLsx3-h_1X0e1XVa5v-315">
          <mxGeometry x="525" y="600" width="100" height="50" as="geometry" />
        </mxCell>
        <mxCell id="F2WLsx3-h_1X0e1XVa5v-396" value="Shattered&lt;br&gt;Columns" style="text;html=1;resizable=0;autosize=1;align=center;verticalAlign=middle;points=[];fillColor=none;strokeColor=none;rounded=0;shadow=1;sketch=0;fontFamily=Macondo;fontSource=https%3A%2F%2Ffonts.googleapis.com%2Fcss%3Ffamily%3DMacondo;fontSize=16;fontStyle=1" vertex="1" parent="F2WLsx3-h_1X0e1XVa5v-315">
          <mxGeometry x="725" y="1150" width="100" height="50" as="geometry" />
        </mxCell>
        <mxCell id="F2WLsx3-h_1X0e1XVa5v-397" value="Overgrown&lt;br&gt;Pool" style="text;html=1;resizable=0;autosize=1;align=center;verticalAlign=middle;points=[];fillColor=none;strokeColor=none;rounded=0;shadow=1;sketch=0;fontFamily=Macondo;fontSource=https%3A%2F%2Ffonts.googleapis.com%2Fcss%3Ffamily%3DMacondo;fontSize=16;fontStyle=1" vertex="1" parent="F2WLsx3-h_1X0e1XVa5v-315">
          <mxGeometry x="825" y="1325" width="100" height="50" as="geometry" />
        </mxCell>
        <mxCell id="F2WLsx3-h_1X0e1XVa5v-398" value="Entrance" style="text;html=1;resizable=0;autosize=1;align=center;verticalAlign=middle;points=[];fillColor=none;strokeColor=none;rounded=0;shadow=1;sketch=0;fontFamily=Macondo;fontSource=https%3A%2F%2Ffonts.googleapis.com%2Fcss%3Ffamily%3DMacondo;fontSize=16;fontStyle=1" vertex="1" parent="F2WLsx3-h_1X0e1XVa5v-315">
          <mxGeometry x="150" y="1450" width="100" height="50" as="geometry" />
        </mxCell>
        <mxCell id="F2WLsx3-h_1X0e1XVa5v-399" value="Exit to the&lt;br&gt;Forest Road, Foggy Valley" style="text;html=1;resizable=0;autosize=1;align=center;verticalAlign=middle;points=[];fillColor=none;strokeColor=none;rounded=0;shadow=1;sketch=0;fontFamily=Macondo;fontSource=https%3A%2F%2Ffonts.googleapis.com%2Fcss%3Ffamily%3DMacondo;fontSize=16;fontStyle=1" vertex="1" parent="F2WLsx3-h_1X0e1XVa5v-315">
          <mxGeometry x="175" y="1100" width="200" height="50" as="geometry" />
        </mxCell>
        <mxCell id="F2WLsx3-h_1X0e1XVa5v-400" value="Note: The entrance&lt;br&gt;and exit are both&lt;br&gt;one-way, connecting&lt;br&gt;this map to the&lt;br&gt;&lt;div&gt;&lt;span&gt;Foggy Valley map.&lt;/span&gt;&lt;span&gt;&amp;nbsp;&lt;/span&gt;&lt;/div&gt;" style="text;html=1;resizable=0;autosize=1;align=left;verticalAlign=middle;points=[];fillColor=none;strokeColor=none;rounded=0;shadow=1;sketch=0;fontFamily=Macondo;fontSource=https%3A%2F%2Ffonts.googleapis.com%2Fcss%3Ffamily%3DMacondo;fontSize=13;fontStyle=1" vertex="1" parent="F2WLsx3-h_1X0e1XVa5v-315">
          <mxGeometry x="125" y="1250" width="150" height="100" as="geometry" />
        </mxCell>
        <mxCell id="F2WLsx3-h_1X0e1XVa5v-401" value="Note: Some types of Shan spawn more&lt;br&gt;frequently in the Estates or Vineyard sections&lt;br&gt;of the area. Emoaths, for instance, appear&lt;br&gt;to prefer the Estate, while Rogues appear to prefer the Vineyards." style="text;html=1;resizable=0;autosize=1;align=left;verticalAlign=middle;points=[];fillColor=none;strokeColor=none;rounded=0;shadow=1;sketch=0;fontFamily=Macondo;fontSource=https%3A%2F%2Ffonts.googleapis.com%2Fcss%3Ffamily%3DMacondo;fontSize=13;fontStyle=1" vertex="1" parent="F2WLsx3-h_1X0e1XVa5v-315">
          <mxGeometry x="750" y="1450" width="350" height="100" as="geometry" />
        </mxCell>
        <mxCell id="F2WLsx3-h_1X0e1XVa5v-403" value="Shan Empath&lt;br style=&quot;font-size: 20px;&quot;&gt;(~56-59)&lt;br style=&quot;font-size: 20px;&quot;&gt;Shan Sorceress&lt;br style=&quot;font-size: 20px;&quot;&gt;(~55-58)&lt;br style=&quot;font-size: 20px;&quot;&gt;Shan Bard&lt;br style=&quot;font-size: 20px;&quot;&gt;(~57-62)&lt;br style=&quot;font-size: 20px;&quot;&gt;Shan Shamen&lt;br style=&quot;font-size: 20px;&quot;&gt;(~58-63)&lt;br style=&quot;font-size: 20px;&quot;&gt;Shan Rogue&lt;br style=&quot;font-size: 20px;&quot;&gt;(~60)" style="text;html=1;resizable=0;autosize=1;align=center;verticalAlign=middle;points=[];fillColor=none;strokeColor=none;rounded=0;shadow=1;sketch=0;fontFamily=Macondo;fontSource=https%3A%2F%2Ffonts.googleapis.com%2Fcss%3Ffamily%3DMacondo;fontSize=20;fontStyle=1;spacingTop=0;" vertex="1" parent="F2WLsx3-h_1X0e1XVa5v-315">
          <mxGeometry x="900" y="775" width="150" height="250" as="geometry" />
        </mxCell>
        <mxCell id="F2WLsx3-h_1X0e1XVa5v-404" value="go gate" style="text;html=1;strokeColor=none;fillColor=default;align=center;verticalAlign=middle;whiteSpace=wrap;rounded=0;shadow=0;sketch=0;fontFamily=Open Sans;fontSource=https%3A%2F%2Ffonts.googleapis.com%2Fcss%3Ffamily%3DOpen%2BSans;fontSize=10;fontStyle=1" vertex="1" parent="F2WLsx3-h_1X0e1XVa5v-315">
          <mxGeometry x="745" y="900" width="60" height="30" as="geometry" />
        </mxCell>
        <mxCell id="F2WLsx3-h_1X0e1XVa5v-405" value="" style="endArrow=none;dashed=1;html=1;rounded=0;strokeWidth=2;entryX=0.5;entryY=1;entryDx=0;entryDy=0;exitX=0.5;exitY=0;exitDx=0;exitDy=0;fontFamily=Amarante;fontSource=https%3A%2F%2Ffonts.googleapis.com%2Fcss%3Ffamily%3DAmarante;" edge="1" parent="F2WLsx3-h_1X0e1XVa5v-315" source="F2WLsx3-h_1X0e1XVa5v-358" target="F2WLsx3-h_1X0e1XVa5v-404">
          <mxGeometry width="50" height="50" relative="1" as="geometry">
            <mxPoint x="775" y="1050" as="sourcePoint" />
            <mxPoint x="775" y="800" as="targetPoint" />
          </mxGeometry>
        </mxCell>
        <mxCell id="F2WLsx3-h_1X0e1XVa5v-406" value="go gap" style="text;html=1;strokeColor=none;fillColor=default;align=center;verticalAlign=middle;whiteSpace=wrap;rounded=0;shadow=0;sketch=0;fontFamily=Open Sans;fontSource=https%3A%2F%2Ffonts.googleapis.com%2Fcss%3Ffamily%3DOpen%2BSans;fontSize=10;fontStyle=1;rotation=315;" vertex="1" parent="F2WLsx3-h_1X0e1XVa5v-315">
          <mxGeometry x="300" y="1020" width="60" height="30" as="geometry" />
        </mxCell>
        <mxCell id="F2WLsx3-h_1X0e1XVa5v-407" value="go path" style="text;html=1;strokeColor=none;fillColor=default;align=center;verticalAlign=middle;whiteSpace=wrap;rounded=0;shadow=0;sketch=0;fontFamily=Open Sans;fontSource=https%3A%2F%2Ffonts.googleapis.com%2Fcss%3Ffamily%3DOpen%2BSans;fontSize=10;fontStyle=1;rotation=315;" vertex="1" parent="F2WLsx3-h_1X0e1XVa5v-315">
          <mxGeometry x="400" y="1020" width="60" height="30" as="geometry" />
        </mxCell>
        <mxCell id="F2WLsx3-h_1X0e1XVa5v-408" value="out / go tunnel" style="text;html=1;strokeColor=none;fillColor=default;align=center;verticalAlign=middle;whiteSpace=wrap;rounded=0;shadow=0;sketch=0;fontFamily=Open Sans;fontSource=https%3A%2F%2Ffonts.googleapis.com%2Fcss%3Ffamily%3DOpen%2BSans;fontSize=10;fontStyle=1" vertex="1" parent="F2WLsx3-h_1X0e1XVa5v-315">
          <mxGeometry x="470" y="1610" width="100" height="20" as="geometry" />
        </mxCell>
        <mxCell id="F2WLsx3-h_1X0e1XVa5v-409" value="go trapdoor&lt;br&gt;(one way)" style="text;html=1;strokeColor=none;fillColor=default;align=center;verticalAlign=middle;whiteSpace=wrap;rounded=0;shadow=0;sketch=0;fontFamily=Open Sans;fontSource=https%3A%2F%2Ffonts.googleapis.com%2Fcss%3Ffamily%3DOpen%2BSans;fontSize=10;fontStyle=1" vertex="1" parent="F2WLsx3-h_1X0e1XVa5v-315">
          <mxGeometry x="300" y="1510" width="66.25" height="30" as="geometry" />
        </mxCell>
        <mxCell id="F2WLsx3-h_1X0e1XVa5v-410" value="go house&amp;nbsp; / out" style="text;html=1;strokeColor=none;fillColor=default;align=center;verticalAlign=middle;whiteSpace=wrap;rounded=0;shadow=0;sketch=0;fontFamily=Open Sans;fontSource=https%3A%2F%2Ffonts.googleapis.com%2Fcss%3Ffamily%3DOpen%2BSans;fontSize=10;fontStyle=1" vertex="1" parent="F2WLsx3-h_1X0e1XVa5v-315">
          <mxGeometry x="275" y="1420" width="100" height="20" as="geometry" />
        </mxCell>
      </root>
    </mxGraphModel>
  </diagram>
</mxfile>
